<?xml version="1.0" encoding="UTF-8"?>
<svg width="4514px" height="1120px" viewBox="0 0 4514 1120" version="1.1" xmlns="http://www.w3.org/2000/svg" xmlns:xlink="http://www.w3.org/1999/xlink">
    <!-- Generator: Sketch 53.2 (72643) - https://sketchapp.com -->
    <title>hastnama-full</title>
    <desc>Created with Sketch.</desc>
    <g id="Page-1" stroke="none" stroke-width="1" fill="none" fill-rule="evenodd">
        <g id="hastnama-full" transform="translate(1.000000, 1.000000)" fill-rule="nonzero" stroke="#FFFFFF" stroke-width="0.900032">
            <g id="Group" transform="translate(0.000000, 29.000000)" fill="#FFFFFF">
                <path d="M2288,479 L2288,574 L2897,574 L2897,377 C2897,312 2872,249 2826,204 C2780,158 2719,132 2653,132 C2614,132 2575,142 2541,160 C2511,175 2486,196 2466,222 C2393,245 2342,314 2342,394 C2342,425 2350,454 2363,479 L2288,479 Z M2608,479 L2522,479 C2475,479 2437,441 2437,394 C2437,346 2475,308 2522,308 C2569,308 2608,346 2608,394 L2608,479 Z M2802,479 L2703,479 L2703,394 C2703,325 2665,266 2609,234 C2623,230 2638,227 2653,227 C2735,227 2802,294 2802,377 L2802,479 Z" id="Shape"></path>
                <path d="M2107,432 C2107,458 2085,479 2059,479 C2032,479 2012,458 2012,432 L2012,260 C2012,234 1990,212 1964,212 C1938,212 1917,234 1917,260 L1917,432 C1917,458 1895,479 1869,479 C1842,479 1820,458 1820,432 L1820,260 C1820,234 1799,212 1773,212 C1746,212 1725,234 1725,260 L1725,432 C1725,458 1704,479 1678,479 L1638,479 L1638,574 L1678,574 C1714,574 1747,561 1773,539 C1798,561 1831,574 1869,574 C1905,574 1939,561 1964,539 C1989,561 2022,574 2059,574 C2095,574 2129,561 2154,539 C2179,561 2212,574 2249,574 L2289,574 L2289,479 L2249,479 C2223,479 2202,458 2202,432 L2202,260 C2202,234 2180,212 2154,212 C2128,212 2107,234 2107,260 L2107,432 Z" id="Path"></path>
                <path d="M1456,432 L1456,434 C1456,459 1434,479 1409,479 L964,479 L964,574 L1409,574 C1445,574 1478,561 1504,538 C1529,561 1563,574 1599,574 L1639,574 L1639,479 L1599,479 C1573,479 1553,459 1551,434 L1551,432 L1551,260 C1551,235 1530,212 1504,212 C1477,212 1456,235 1456,260 L1456,432 Z" id="Path"></path>
                <path d="M1346,0 C1316,0 1291,23 1291,53 C1291,83 1316,107 1346,107 C1375,107 1399,83 1399,53 C1399,23 1375,0 1346,0 Z" id="Path"></path>
                <path d="M1217,0 C1187,0 1163,23 1163,53 C1163,83 1187,107 1217,107 C1246,107 1271,83 1271,53 C1271,23 1246,0 1217,0 Z" id="Path"></path>
                <path d="M811,432 C811,458 789,479 763,479 L709,479 L709,574 L763,574 C841,574 906,511 906,432 L906,260 C906,235 884,212 858,212 C832,212 811,235 811,260 L811,432 Z" id="Path"></path>
                <path d="M853,0 C823,0 799,23 799,53 C799,83 823,107 853,107 C882,107 907,83 907,53 C907,23 882,0 853,0 Z" id="Path"></path>
                <path d="M0,432 C0,511 64,574 143,574 L182,574 L182,479 L143,479 C116,479 95,458 95,432 L95,49 C95,23 73,1 48,1 C21,1 0,23 0,49 L0,432 Z" id="Path"></path>
                <path d="M446,574 L446,574 L446,574 C399,574 356,556 323,527 C297,556 260,574 218,574 L177,574 L177,479 L218,479 C244,479 265,458 265,431 L265,394 C265,293 346,212 446,212 L446,212 L446,212 L446,212 C546,212 627,293 627,394 L627,431 C627,458 648,479 674,479 L714,479 L714,574 L674,574 C632,574 594,556 569,527 C536,556 493,574 446,574 L446,574 Z M446,308 L446,308 L446,308 C399,308 360,346 360,394 C360,441 399,479 446,479 L446,479 L446,479 L446,479 C493,479 532,441 532,394 C532,346 493,308 446,308 L446,308 Z" id="Shape"></path>
                <path d="M101,1049 C87,1049 74,1048 62,1045 C51,1042 42,1037 34,1029 C27,1022 21,1012 17,1000 C13,988 11,972 11,954 L0,954 C0,971 2,986 5,999 C8,1012 14,1023 21,1033 C29,1042 39,1049 52,1054 C65,1059 82,1061 101,1061 C119,1061 134,1060 146,1057 C158,1054 168,1050 176,1045 C183,1040 188,1033 192,1026 C195,1019 196,1011 196,1002 C196,997 196,992 194,987 C193,983 190,979 187,975 C184,971 179,968 174,965 C168,961 161,958 152,956 C145,953 137,950 131,947 C124,944 118,941 113,937 C108,933 105,928 102,923 C99,918 98,913 98,906 C98,890 101,877 108,868 C115,859 126,854 141,854 C147,854 153,856 158,858 C163,861 167,865 171,870 C174,875 177,880 179,886 C181,892 182,899 182,905 L193,905 C192,886 186,870 177,859 C167,848 155,843 141,843 C131,843 122,845 115,848 C108,852 103,857 98,863 C94,868 91,875 89,883 C87,890 86,898 86,906 C86,919 89,930 97,940 C104,950 115,957 132,962 C141,966 149,969 156,971 C163,974 168,977 172,980 C177,983 180,987 181,990 C183,994 184,998 184,1002 C184,1011 182,1018 178,1024 C175,1030 169,1035 162,1039 C155,1043 146,1045 136,1047 C126,1048 114,1049 101,1049 Z M239,1049 C235,1049 232,1049 229,1048 C226,1047 223,1046 220,1044 L220,1056 C222,1057 223,1058 226,1059 C227,1059 230,1060 232,1061 C235,1061 238,1061 242,1061 C256,1061 266,1055 272,1043 C278,1030 281,1013 281,991 L281,862 L269,862 L269,991 C269,1002 268,1011 267,1018 C267,1026 265,1032 263,1036 C260,1041 257,1044 253,1046 C249,1048 245,1049 239,1049 Z M356,1061 C370,1061 382,1059 392,1055 C402,1051 410,1043 416,1033 C422,1023 427,1010 429,994 C432,977 433,957 433,932 C433,919 432,906 431,895 C429,884 426,875 421,867 C417,859 411,853 403,849 C395,845 386,843 374,843 C363,843 353,845 345,849 C338,854 332,859 327,866 C323,873 320,882 318,891 C316,900 315,910 315,920 C315,930 316,939 319,948 C321,956 324,963 329,970 C334,976 340,981 347,985 C355,988 364,990 374,990 L417,990 C415,1001 412,1011 409,1019 C406,1026 401,1032 396,1037 C391,1041 386,1045 379,1046 C372,1048 364,1049 356,1049 C354,1049 352,1049 349,1049 C347,1049 345,1048 342,1048 C340,1047 338,1047 335,1046 C333,1046 332,1045 330,1044 L330,1057 C332,1058 335,1058 337,1059 C339,1060 342,1060 345,1061 C348,1061 352,1061 356,1061 Z M328,920 C328,910 329,902 330,894 C332,886 335,879 338,873 C342,867 347,863 353,860 C359,856 366,855 375,855 C392,855 403,861 410,874 C417,887 421,906 421,931 C421,941 420,949 420,957 C420,965 419,972 418,979 L374,979 C358,979 346,974 339,964 C331,953 328,939 328,920 Z M455,726 C449,726 444,728 440,731 C437,735 435,740 435,747 L443,747 C443,744 444,741 446,739 C448,737 451,736 456,736 C458,736 461,736 464,737 C467,738 470,739 474,740 C477,741 480,742 483,743 C487,744 490,744 493,744 C499,744 503,743 507,739 C511,736 513,731 513,723 L505,723 C505,727 504,729 502,731 C499,733 496,734 491,734 C488,734 485,734 482,733 C479,732 475,731 472,730 C470,729 467,728 464,727 C461,727 458,726 455,726 Z M468,990 L480,990 L480,776 L468,776 L468,990 Z M555,1061 C566,1061 575,1060 584,1058 C592,1055 599,1051 605,1045 C611,1040 616,1032 620,1023 C624,1014 627,1003 629,990 L668,990 C670,990 672,990 672,989 C673,988 673,988 673,987 L673,983 C673,981 672,980 672,980 C671,979 670,979 668,979 L630,979 C631,972 631,965 632,957 C632,950 632,941 632,932 C632,919 631,906 629,895 C628,884 625,875 620,867 C616,859 609,853 602,849 C594,845 585,843 573,843 C562,843 552,845 544,849 C537,854 531,859 526,866 C522,873 519,882 517,891 C515,900 514,910 514,920 C514,930 515,939 517,948 C520,956 523,963 528,970 C533,976 539,981 546,985 C554,988 563,990 573,990 L616,990 C614,1001 611,1011 608,1019 C604,1026 600,1032 595,1037 C590,1041 584,1045 578,1046 C571,1048 563,1049 555,1049 C553,1049 551,1049 548,1049 C546,1049 543,1048 541,1048 C539,1047 536,1047 534,1046 C532,1046 531,1045 529,1044 L529,1057 C531,1058 533,1058 536,1059 C538,1060 541,1060 544,1061 C547,1061 551,1061 555,1061 Z M527,920 C527,910 528,902 529,894 C531,886 534,879 537,873 C541,867 546,863 552,860 C558,856 565,855 573,855 C590,855 602,861 609,874 C616,887 620,906 620,931 C620,941 619,949 619,957 C619,965 618,972 617,979 L573,979 C557,979 545,974 537,964 C530,953 527,939 527,920 Z M732,776 L732,811 L744,811 L744,776 L732,776 Z M729,979 L668,979 C667,979 665,979 665,980 C664,980 663,981 663,983 L663,987 C663,988 664,988 664,989 C665,990 666,990 668,990 L741,990 L741,862 L729,862 L729,979 Z M890,1061 C904,1061 916,1059 926,1055 C936,1051 944,1043 950,1033 C956,1023 961,1010 963,994 C966,977 967,957 967,932 C967,919 966,906 965,895 C963,884 960,875 955,867 C951,859 945,853 937,849 C929,845 920,843 908,843 C897,843 887,845 880,849 C872,854 866,859 861,866 C857,873 854,882 852,891 C850,900 849,910 849,920 C849,930 850,939 853,948 C855,956 858,963 863,970 C868,976 874,981 881,985 C889,988 898,990 908,990 L951,990 C949,1001 946,1011 943,1019 C940,1026 935,1032 930,1037 C926,1041 920,1045 913,1046 C906,1048 898,1049 890,1049 C888,1049 886,1049 883,1049 C881,1049 879,1048 876,1048 C874,1047 872,1047 870,1046 C867,1046 866,1045 864,1044 L864,1057 C866,1058 869,1058 871,1059 C873,1060 876,1060 879,1061 C882,1061 886,1061 890,1061 Z M862,920 C862,910 863,902 864,894 C866,886 869,879 873,873 C876,867 881,863 887,860 C893,856 900,855 909,855 C926,855 938,861 944,874 C951,887 955,906 955,931 C955,941 955,949 954,957 C954,965 953,972 952,979 L908,979 C892,979 880,974 873,964 C865,953 862,939 862,920 Z M1198,802 L1198,837 L1210,837 L1210,802 L1198,802 Z M1160,802 L1160,837 L1172,837 L1172,802 L1160,802 Z M1127,990 L1269,990 C1273,990 1278,989 1282,988 C1286,987 1290,985 1293,983 C1297,981 1300,978 1303,974 C1306,970 1308,965 1310,959 C1311,963 1313,967 1315,971 C1318,975 1321,978 1325,981 C1329,983 1333,986 1338,987 C1342,989 1347,990 1352,990 L1360,990 C1362,990 1364,990 1364,989 C1365,988 1365,988 1365,987 L1365,983 C1365,981 1364,980 1364,980 C1363,979 1362,979 1360,979 L1352,979 C1346,979 1341,978 1336,976 C1331,973 1327,970 1324,966 C1320,962 1318,957 1316,952 C1314,946 1313,941 1313,935 L1313,862 L1301,862 L1301,936 C1301,965 1291,979 1269,979 L1127,979 C1097,979 1081,960 1081,921 L1081,901 L1071,901 L1071,921 C1071,944 1076,961 1086,972 C1096,984 1110,990 1127,990 Z M1423,1018 L1423,1053 L1435,1053 L1435,1018 L1423,1018 Z M1385,1018 L1385,1053 L1397,1053 L1397,1018 L1385,1018 Z M1397,979 L1360,979 C1358,979 1357,979 1356,980 C1356,980 1355,981 1355,983 L1355,987 C1355,988 1355,988 1356,989 C1356,990 1358,990 1360,990 L1397,990 C1402,990 1406,989 1410,988 C1414,987 1418,985 1421,983 C1425,981 1428,978 1431,974 C1434,970 1436,965 1438,959 C1439,963 1441,967 1443,971 C1446,975 1449,978 1453,981 C1457,983 1461,986 1466,987 C1470,989 1475,990 1480,990 L1488,990 C1490,990 1492,990 1492,989 C1493,988 1493,988 1493,987 L1493,983 C1493,981 1493,980 1492,980 C1491,979 1490,979 1488,979 L1480,979 C1474,979 1469,978 1464,975 C1459,973 1455,970 1452,965 C1448,961 1446,956 1444,950 C1442,945 1441,939 1441,933 L1441,862 L1430,862 L1430,936 C1430,965 1419,979 1397,979 Z M1597,776 L1597,811 L1609,811 L1609,776 L1597,776 Z M1559,776 L1559,811 L1571,811 L1571,776 L1559,776 Z M1581,979 C1574,979 1567,978 1561,975 C1555,972 1549,968 1545,963 C1540,958 1537,951 1534,943 C1531,935 1530,927 1530,917 C1530,897 1535,881 1544,871 C1552,860 1565,855 1581,855 C1597,855 1609,860 1618,871 C1627,881 1631,897 1631,917 C1631,937 1627,952 1618,963 C1609,974 1597,979 1581,979 Z M1488,990 L1581,990 C1591,990 1600,988 1608,984 C1616,980 1623,975 1628,969 C1633,962 1637,954 1640,945 C1643,936 1644,927 1644,917 C1644,906 1643,896 1640,887 C1637,878 1633,870 1628,864 C1622,857 1615,852 1608,848 C1600,845 1591,843 1581,843 C1571,843 1562,845 1554,848 C1546,852 1539,857 1534,864 C1529,870 1525,878 1522,887 C1519,896 1518,906 1518,917 C1518,930 1520,942 1525,953 C1530,964 1537,973 1545,979 L1488,979 C1487,979 1485,979 1485,980 C1484,980 1483,981 1483,983 L1483,987 C1483,988 1484,988 1484,989 C1485,990 1486,990 1488,990 Z M1668,990 L1773,990 C1777,990 1781,989 1786,988 C1790,987 1793,985 1797,983 C1801,981 1804,978 1807,974 C1810,970 1812,965 1814,959 C1815,963 1816,967 1819,971 C1822,975 1825,978 1829,981 C1833,983 1837,986 1841,987 C1846,989 1851,990 1855,990 L1865,990 C1868,990 1869,990 1869,989 C1870,988 1870,988 1870,987 L1870,983 C1870,981 1870,980 1869,980 C1868,979 1867,979 1865,979 L1856,979 C1850,979 1844,978 1839,975 C1835,973 1830,970 1827,965 C1824,961 1821,956 1820,950 C1818,945 1817,939 1817,933 L1817,776 L1805,776 L1805,936 C1805,965 1794,979 1773,979 L1721,979 L1721,831 L1709,831 L1709,979 L1668,979 L1668,990 Z M1963,776 L1963,811 L1975,811 L1975,776 L1963,776 Z M1966,855 C1975,855 1983,857 1990,860 C1997,863 2003,868 2008,874 C2013,880 2018,887 2021,896 C2025,904 2027,913 2029,923 C2030,927 2031,932 2032,938 C2033,944 2034,949 2035,955 C2036,961 2037,966 2038,970 C2039,975 2040,978 2041,979 L1865,979 C1864,979 1863,979 1862,980 C1861,980 1861,981 1861,983 L1861,987 C1861,988 1861,988 1861,989 C1862,990 1863,990 1865,990 L2056,990 C2055,986 2054,983 2053,979 C2052,975 2051,971 2050,966 C2049,961 2048,955 2047,949 C2045,943 2044,935 2043,926 C2041,915 2039,904 2035,894 C2031,884 2026,875 2019,868 C2013,860 2005,854 1996,850 C1988,845 1977,843 1966,843 C1955,843 1944,845 1936,848 C1927,852 1919,857 1913,863 C1907,869 1902,877 1898,885 C1894,893 1892,901 1891,909 L1903,909 C1904,901 1906,893 1910,886 C1913,879 1918,874 1923,869 C1929,865 1935,861 1943,859 C1950,856 1958,855 1966,855 Z M2218,981 C2209,981 2201,979 2195,976 C2188,973 2183,969 2179,963 C2175,958 2172,951 2170,944 C2168,936 2167,927 2167,918 C2167,909 2168,900 2170,893 C2172,885 2175,878 2179,873 C2183,867 2188,863 2195,860 C2201,857 2209,855 2218,855 C2227,855 2235,857 2241,860 C2247,863 2253,867 2257,873 C2261,878 2264,885 2266,893 C2268,900 2269,909 2269,918 C2269,927 2268,936 2266,944 C2264,951 2261,958 2257,963 C2253,969 2247,973 2241,976 C2235,979 2227,981 2218,981 Z M2218,993 C2229,993 2238,991 2246,987 C2254,983 2260,978 2266,971 C2271,964 2275,956 2277,947 C2280,938 2281,928 2281,918 C2281,908 2280,898 2277,889 C2275,880 2271,872 2266,865 C2260,858 2254,853 2246,849 C2238,845 2229,843 2218,843 C2207,843 2198,845 2190,849 C2182,853 2175,858 2170,865 C2165,872 2161,880 2158,889 C2156,898 2155,908 2155,918 C2155,928 2156,938 2159,947 C2161,956 2165,964 2170,971 C2175,978 2182,983 2190,987 C2198,991 2207,993 2218,993 Z M2357,979 L2328,979 L2328,776 L2316,776 L2316,990 L2357,990 C2359,990 2360,990 2361,989 C2361,988 2361,988 2361,987 L2361,983 C2361,981 2361,980 2360,980 C2359,979 2358,979 2357,979 Z M2377,848 L2449,776 L2434,776 L2362,848 L2377,848 Z M2357,990 L2567,990 L2567,924 C2567,914 2566,904 2563,895 C2561,886 2558,878 2553,871 C2548,864 2541,858 2533,854 C2525,850 2514,848 2502,848 L2438,848 L2509,776 L2493,776 L2421,848 L2421,859 L2504,859 C2519,859 2531,864 2541,874 C2550,885 2555,901 2555,924 L2555,979 L2357,979 C2355,979 2354,979 2353,980 C2352,980 2352,981 2352,983 L2352,987 C2352,988 2352,988 2353,989 C2353,990 2354,990 2357,990 Z M2610,1049 C2607,1049 2604,1049 2601,1048 C2598,1047 2595,1046 2592,1044 L2592,1056 C2593,1057 2595,1058 2597,1059 C2599,1059 2601,1060 2604,1061 C2607,1061 2610,1061 2614,1061 C2628,1061 2638,1055 2644,1043 C2650,1030 2653,1013 2653,991 L2653,862 L2641,862 L2641,991 C2641,1002 2640,1011 2639,1018 C2638,1026 2637,1032 2634,1036 C2632,1041 2629,1044 2625,1046 C2621,1048 2616,1049 2610,1049 Z M2733,979 L2703,979 L2703,776 L2691,776 L2691,990 L2733,990 C2735,990 2736,990 2737,989 C2737,988 2737,988 2737,987 L2737,983 C2737,981 2737,980 2736,980 C2735,979 2734,979 2733,979 Z M2733,990 L2898,990 L2898,924 C2898,914 2897,904 2894,895 C2892,886 2889,878 2884,871 C2879,864 2872,858 2864,854 C2856,850 2845,848 2833,848 L2769,848 L2840,776 L2824,776 L2752,848 L2752,859 L2835,859 C2850,859 2862,864 2872,874 C2881,885 2886,901 2886,924 L2886,979 L2733,979 C2731,979 2730,979 2729,980 C2728,980 2728,981 2728,983 L2728,987 C2728,988 2728,988 2728,989 C2729,990 2730,990 2733,990 Z" id="Shape"></path>
            </g>
            <path d="M4090,110 L4286,450 L4482,790 C4502,825 4512,862 4512,899 C4512,937 4502,974 4482,1009 C4462,1043 4435,1071 4402,1090 C4370,1108 4332,1118 4292,1118 L3900,1118 L3507,1118 C3468,1118 3430,1108 3398,1090 C3365,1071 3338,1043 3318,1009 C3298,974 3288,937 3288,899 C3288,862 3298,825 3318,790 L3514,450 L3710,110 C3730,76 3757,48 3790,29 L3790,29 C3823,10 3860,0 3900,0 C3940,0 3977,10 4010,29 L4010,29 C4042,48 4070,76 4090,110 Z M3781,186 C3840,211 3893,247 3938,292 C4026,379 4080,500 4080,634 C4080,768 4026,889 3938,977 C3923,992 3907,1006 3890,1019 L3900,1019 L4292,1019 C4315,1019 4335,1014 4352,1004 C4370,993 4385,978 4396,959 C4407,940 4413,920 4413,899 C4413,879 4407,858 4396,839 L4200,499 L4004,160 C3993,140 3978,125 3960,115 L3960,115 C3943,105 3922,100 3900,100 C3878,100 3857,105 3840,115 L3840,115 C3822,125 3807,140 3796,160 L3781,186 Z M3610,1019 L3610,1019 C3710,1015 3801,973 3867,906 C3937,837 3980,740 3980,634 C3980,528 3937,432 3867,362 C3829,323 3782,293 3730,274 L3600,499 L3404,839 C3393,858 3387,879 3387,899 C3387,920 3393,940 3404,959 C3415,978 3430,993 3447,1004 C3465,1014 3485,1019 3507,1019 L3610,1019 Z" id="Shape" fill="#FFB142"></path>
        </g>
    </g>
</svg>